# xmcd
#
# Track frame offsets:
#	150
#	24326
#	37621
#	61617
#	74486
#	87775
#	109356
#	128740
#	142462
#	154861
#	170541
#	206311
#	228104
#	242517
#	257667
#	284460
#	303659
#
# Disc length: 4421 seconds
#
# Revision: 0
# Processed by: cddbd v1.5.1PL2 Copyright (c) Steve Scherf et al.
# Submitted via: audiograbber 1.83.01
#
DISCID=e5114311
DTITLE=Steve Earle - Heavy Metal Blue Grass (Undrugged in Bern) [CD1]
DYEAR=1997
DGENRE=Country
TTITLE0=Xmas in Washington
TTITLE1=Here I Am
TTITLE2=Taney Town
TTITLE3=Hardcore Troubadour
TTITLE4=My Old Friend The Blues
TTITLE5=Someday
TTITLE6=If You Fall
TTITLE7=Mystery Train (Part 2)
TTITLE8=You Know The Rest
TTITLE9=Windfall
TTITLE10=Zen Mandolin, Copperhead Road
TTITLE11=Telephone Road
TTITLE12=More Than I Can Do
TTITLE13=Now She's Gone
TTITLE14=Poison Lovers
TTITLE15=Somewhere Out There
TTITLE16=Billy Austin
EXTD=
EXTT0=
EXTT1=
EXTT2=
EXTT3=
EXTT4=
EXTT5=
EXTT6=
EXTT7=
EXTT8=
EXTT9=
EXTT10=
EXTT11=
EXTT12=
EXTT13=
EXTT14=
EXTT15=
EXTT16=
PLAYORDER=
